<?xml version="1.0" encoding="iso-8859-1"?>
<!-- Generator: Adobe Illustrator 16.0.0, SVG Export Plug-In . SVG Version: 6.00 Build 0)  -->
<!DOCTYPE svg PUBLIC "-//W3C//DTD SVG 1.1//EN" "http://www.w3.org/Graphics/SVG/1.1/DTD/svg11.dtd">
<svg version="1.1" id="Capa_1" xmlns="http://www.w3.org/2000/svg" xmlns:xlink="http://www.w3.org/1999/xlink" x="0px" y="0px"
	 width="529.806px" height="529.805px" viewBox="0 0 529.806 529.805" style="enable-background:new 0 0 529.806 529.805;"
	 xml:space="preserve">
<g>
	<path d="M479.952,350.711V152.702c17.188-5.62,29.625-21.775,29.625-40.843c0-23.74-19.256-42.988-42.988-42.988
		c-14.975,0-28.142,7.663-35.836,19.275L306.665,46.962c0.126-1.322,0.333-2.622,0.333-3.973C306.998,19.249,287.742,0,264.005,0
		c-23.746,0-42.988,19.249-42.988,42.989c0,1.396,0.08,2.769,0.208,4.123L99.001,88.045c-7.706-11.56-20.857-19.18-35.791-19.18
		c-23.74,0-42.988,19.248-42.988,42.988c0,20.638,14.547,37.855,33.94,42.015v195.672c-19.393,4.159-33.94,21.374-33.94,42.015
		c0,23.738,19.248,42.99,42.988,42.99c17.905,0,33.25-10.958,39.71-26.53l123.711,57.556c-3.574,6.264-5.615,13.514-5.615,21.246
		c0,23.743,19.242,42.988,42.988,42.988c23.737,0,42.993-19.245,42.993-42.988c0-7.694-2.101-14.856-5.651-21.105l125.479-57.85
		c6.419,15.655,21.799,26.688,39.771,26.688c23.738,0,42.986-19.246,42.986-42.988C509.577,372.479,497.14,356.337,479.952,350.711z
		 M76.582,350.711V152.702c7.682-2.512,14.314-7.207,19.415-13.234l125.99,58.611c-0.625,2.917-0.969,5.937-0.969,9.037
		c0,20.637,14.547,37.855,33.94,42.014v28.368v23.66L88.565,356.874C84.951,354.236,80.924,352.135,76.582,350.711z M103.033,375.67
		l151.92-50.874v120.007c-3.924,0.837-7.629,2.237-11.078,4.065l-138.239-64.312C105.124,381.443,104.172,378.51,103.033,375.67z
		 M277.375,445.97V326.193l149.274,49.549c-1.094,2.751-1.925,5.646-2.43,8.647l-140.026,64.546
		C282.014,447.782,279.748,446.746,277.375,445.97z M277.375,302.576v-27.793v-26.824c17.188-5.62,29.623-21.776,29.623-40.843
		c0-3.054-0.337-6.03-0.94-8.903L433.62,139.4c6.031,7.213,14.381,12.427,23.924,14.474v195.674
		c-6.028,1.285-11.589,3.857-16.394,7.382L277.375,302.576z M423.727,109.433c-0.048,0.813-0.118,1.609-0.118,2.427
		c0,2.455,0.22,4.851,0.611,7.196l-128.415,59.204c-4.959-5.464-11.267-9.649-18.43-11.992v-82.43
		c8.76-2.87,16.255-8.496,21.536-15.831L423.727,109.433z M229.148,68.102c6.124,8.469,15.235,14.638,25.804,16.906v80.094
		c-8.897,1.904-16.734,6.577-22.655,13.05l-126.737-58.969c0.402-2.389,0.646-4.827,0.646-7.33c0-0.856-0.079-1.699-0.132-2.544
		L229.148,68.102z"/>
</g>
<g>
</g>
<g>
</g>
<g>
</g>
<g>
</g>
<g>
</g>
<g>
</g>
<g>
</g>
<g>
</g>
<g>
</g>
<g>
</g>
<g>
</g>
<g>
</g>
<g>
</g>
<g>
</g>
<g>
</g>
</svg>
